<?xml version="1.0" encoding="utf-8"?>
<!-- Generator: Adobe Illustrator 27.7.0, SVG Export Plug-In . SVG Version: 6.00 Build 0)  -->
<svg version="1.1" id="Layer_1" xmlns="http://www.w3.org/2000/svg" xmlns:xlink="http://www.w3.org/1999/xlink" x="0px" y="0px"
	 viewBox="0 0 512 512" style="enable-background:new 0 0 512 512;" xml:space="preserve">
<g>
	<path d="M256,25.6v25.6c45.01-0.03,80.73,2.9,107.83,9.38c20.37,4.85,35.71,11.55,47.53,20.01c17.53,12.73,29.06,29.57,37.48,57.81
		c8.25,28.09,12.01,66.95,11.96,117.6c0.03,45.01-2.9,80.73-9.38,107.83c-4.85,20.37-11.55,35.71-20.01,47.53
		c-12.73,17.53-29.57,29.06-57.81,37.48c-28.09,8.25-66.95,12.01-117.6,11.96c-45.01,0.03-80.73-2.9-107.83-9.38
		c-20.37-4.85-35.71-11.55-47.53-20.01c-17.53-12.73-29.06-29.57-37.48-57.81C54.91,345.51,51.16,306.64,51.2,256
		c-0.03-45.01,2.9-80.73,9.38-107.83c4.85-20.37,11.55-35.71,20.01-47.53c12.73-17.53,29.57-29.06,57.81-37.48
		c28.09-8.25,66.95-12.01,117.6-11.96V25.6V0c-47.15,0.03-86.31,2.86-119.69,10.78c-24.99,5.95-46.91,14.91-65.47,28.18
		c-28.03,19.87-46.57,49.31-56.84,85.11C3.58,160.02,0.04,202.96,0,256c0.03,47.15,2.86,86.31,10.78,119.69
		c5.95,24.99,14.91,46.91,28.18,65.47c19.87,28.03,49.31,46.57,85.11,56.84c35.95,10.43,78.9,13.96,131.93,14.01
		c47.15-0.03,86.31-2.86,119.69-10.78c24.99-5.95,46.91-14.91,65.47-28.18c28.03-19.87,46.57-49.31,56.84-85.11
		c10.43-35.95,13.96-78.9,14.01-131.93c-0.03-47.15-2.86-86.31-10.78-119.69c-5.95-24.99-14.91-46.91-28.18-65.47
		c-19.87-28.03-49.31-46.57-85.11-56.84C351.98,3.58,309.04,0.04,256,0V25.6z"/>
	<path d="M230.4,358.4v0.26c0,14.14,11.46,25.6,25.6,25.6s25.6-11.46,25.6-25.6v-0.26c0-14.14-11.46-25.6-25.6-25.6
		S230.4,344.26,230.4,358.4"/>
	<path d="M255.93,307.2l0.23,0c42.32-0.02,76.65-34.22,76.8-76.57v0l0-0.23c0-28.87-16.2-55.31-41.93-68.43l0.05,0.03
		c-11.01-5.65-22.98-8.4-34.76-8.39c-21.85-0.02-43.37,9.43-58.25,27c-9.13,10.79-7.79,26.94,3,36.08c10.79,9.13,26.94,7.79,36.08-3
		c4.91-5.8,11.94-8.87,19.17-8.88c3.89,0,7.75,0.89,11.42,2.76l0.05,0.03c8.58,4.37,13.98,13.19,13.98,22.81l0,0.08v0
		c-0.02,14.1-11.51,25.54-25.6,25.52l-0.09,0c-14.14-0.04-25.63,11.39-25.67,25.53C230.36,295.67,241.79,307.16,255.93,307.2
		L255.93,307.2z"/>
</g>
</svg>
